<svg width="250" height="71" viewBox="0 0 250 71" fill="none" xmlns="http://www.w3.org/2000/svg">
<path fill-rule="evenodd" clip-rule="evenodd" d="M249.26 10.4979L248.841 0L242.39 9.07504L244.215 9.45295L230.081 59.1534L218.781 26.7599L217.034 21.7515L215.459 26.8166L205.445 59.011L195.621 26.8254L195.11 25.1521L191.763 26.1736L192.274 27.847L203.756 65.4632L205.413 70.8938L207.1 65.472L217.225 32.9209L228.599 65.5287L230.421 70.7514L231.934 65.431L247.65 10.1646L249.26 10.4979Z" fill="white"/>
<path d="M2.5155 47.6399C2.5155 43.8387 3.8571 40.5406 6.5962 37.8015C9.2794 35.1183 12.5775 33.7208 16.4346 33.7208C20.124 33.7208 23.3103 35.0624 26.0494 37.6338L24.596 39.0872C22.2482 36.8512 19.565 35.7332 16.4346 35.7332C13.1924 35.7332 10.3974 36.9071 8.1614 39.2549C5.8695 41.6027 4.7515 44.3977 4.7515 47.6399C4.7515 50.938 5.8695 53.733 8.1614 56.0808C10.3974 58.4286 13.1924 59.5466 16.4346 59.5466C19.9004 59.5466 22.8631 58.2609 25.2668 55.5777L26.7202 56.9752C23.9252 60.0497 20.4594 61.559 16.4346 61.559C12.5775 61.559 9.2794 60.2174 6.5962 57.4783C3.8571 54.7951 2.5155 51.497 2.5155 47.6399ZM30.5201 47.6399C30.5201 43.8387 31.8058 40.5406 34.3772 37.8015C36.9486 35.1183 40.079 33.7208 43.7684 33.7208C46.1721 33.7208 48.3522 34.3357 50.2528 35.5655C52.1534 36.7953 53.6627 38.4164 54.7807 40.5406V34.2798H56.9049V61H54.7807V54.7392C53.6627 56.8634 52.1534 58.5404 50.2528 59.7702C48.3522 61 46.1721 61.559 43.7684 61.559C40.079 61.559 36.9486 60.2174 34.3772 57.4783C31.8058 54.7951 30.5201 51.497 30.5201 47.6399ZM32.7561 47.6399C32.7561 50.938 33.8182 53.733 35.9424 56.0808C38.0666 58.4286 40.638 59.5466 43.7684 59.5466C46.787 59.5466 49.4143 58.4286 51.5385 56.1367C53.6627 53.9007 54.7807 51.0498 54.7807 47.6399C54.7807 44.3977 53.7186 41.6027 51.5944 39.2549C49.4702 36.9071 46.8429 35.7332 43.7684 35.7332C40.638 35.7332 38.0666 36.9071 35.9424 39.2549C33.8182 41.6027 32.7561 44.3977 32.7561 47.6399ZM64.7261 68.6583V34.2798H66.8503V40.5406C67.8565 38.4164 69.3658 36.7953 71.3223 35.5655C73.2229 34.3357 75.403 33.7208 77.8626 33.7208C81.4961 33.7208 84.6265 35.1183 87.1979 37.8015C89.7693 40.5406 91.1109 43.8387 91.1109 47.6399C91.1109 51.497 89.7693 54.7951 87.1979 57.4783C84.6265 60.2174 81.4961 61.559 77.8626 61.559C75.403 61.559 73.167 61 71.2664 59.7702C69.3658 58.5404 67.8565 56.8634 66.8503 54.7392V68.6583H64.7261ZM66.8503 47.6399C66.8503 50.938 67.9124 53.733 70.0366 56.0808C72.1608 58.4286 74.7322 59.5466 77.8626 59.5466C80.9371 59.5466 83.5644 58.4286 85.6886 56.0808C87.8128 53.733 88.8749 50.938 88.8749 47.6399C88.8749 44.3977 87.8128 41.6027 85.6886 39.2549C83.5644 36.9071 80.9371 35.7332 77.8626 35.7332C74.7322 35.7332 72.1608 36.9071 70.0366 39.2549C67.9124 41.6027 66.8503 44.3977 66.8503 47.6399ZM97.5346 61V34.2798H99.6588V61H97.5346ZM96.9197 26.8451C96.9197 26.3979 97.0874 25.9507 97.4228 25.6153C97.7582 25.2799 98.1495 25.1122 98.6526 25.1122C99.0998 25.1122 99.547 25.2799 99.8824 25.6153C100.218 25.9507 100.385 26.3979 100.385 26.8451C100.385 27.3482 100.218 27.7395 99.8824 28.0749C99.547 28.4103 99.0998 28.578 98.6526 28.578C98.1495 28.578 97.7582 28.4103 97.4228 28.0749C97.0874 27.7395 96.9197 27.3482 96.9197 26.8451ZM108.476 52.6709V36.2922H104.395V34.2798H108.476V27.6277H110.6V34.2798H120.942V36.2922H110.6V52.6709C110.6 57.2547 112.166 59.5466 115.408 59.5466C116.246 59.5466 117.085 59.4348 117.923 59.0994C118.762 58.8199 119.377 58.5404 119.768 58.205L120.383 57.8137L121.333 59.5466C119.656 60.8882 117.644 61.559 115.408 61.559C113.395 61.559 111.718 60.8882 110.433 59.5466C109.091 58.205 108.476 55.9131 108.476 52.6709ZM124.851 47.6399C124.851 43.8387 126.137 40.5406 128.708 37.8015C131.28 35.1183 134.41 33.7208 138.1 33.7208C140.503 33.7208 142.683 34.3357 144.584 35.5655C146.485 36.7953 147.994 38.4164 149.112 40.5406V34.2798H151.236V61H149.112V54.7392C147.994 56.8634 146.485 58.5404 144.584 59.7702C142.683 61 140.503 61.559 138.1 61.559C134.41 61.559 131.28 60.2174 128.708 57.4783C126.137 54.7951 124.851 51.497 124.851 47.6399ZM127.087 47.6399C127.087 50.938 128.149 53.733 130.274 56.0808C132.398 58.4286 134.969 59.5466 138.1 59.5466C141.118 59.5466 143.746 58.4286 145.87 56.1367C147.994 53.9007 149.112 51.0498 149.112 47.6399C149.112 44.3977 148.05 41.6027 145.926 39.2549C143.801 36.9071 141.174 35.7332 138.1 35.7332C134.969 35.7332 132.398 36.9071 130.274 39.2549C128.149 41.6027 127.087 44.3977 127.087 47.6399ZM159.057 61V24.2178H161.182V61H159.057Z" fill="white"/>
</svg>
